#!OML:ASF F:\VICON\USERDATA\INSTALL\rory3\rory3.ASF
:FULLY-SPECIFIED
:DEGREES
81
root 0.314427 18.2673 16.2793 3.33634 -1.70876 6.31929
lowerback 14.6964 -2.78563 -6.24213
upperback -0.349642 -4.8475 -0.816321
thorax -8.18415 -2.09762 3.66644
lowerneck -4.49882 2.88163 -0.102057
upperneck -4.0225 3.79717 -2.15774
head -0.447415 1.9028 -0.601947
rclavicle -5.42931e-015 -2.78299e-014
rhumerus -60.2067 2.22039 -81.4062
rradius 87.8294
rwrist -7.23998
rhand -38.1295 30.522
rfingers 7.12502
rthumb -11.1641 0.838996
lclavicle -5.42931e-015 -2.78299e-014
lhumerus -32.7367 -25.3054 95.498
lradius 117.999
lwrist 25.0539
lhand -32.4441 4.40701
lfingers 7.12502
lthumb -5.67754 34.311
rfemur -29.5363 6.61688 15.4184
rtibia 23.2213
rfoot 3.54896 -6.25767
rtoes -16.5524
lfemur 17.4406 -0.886899 -32.2502
ltibia 55.9701
lfoot 27.3762 4.83619
ltoes -5.10438
82
root 0.321514 18.1577 16.7812 2.73726 -2.30977 5.81585
lowerback 15.4546 -2.50731 -5.81774
upperback -0.304813 -4.44385 -0.670127
thorax -8.62392 -1.8984 3.55406
lowerneck -4.4056 2.84565 -0.13421
upperneck -3.65828 3.75754 -2.12629
head -0.353406 1.88131 -0.584916
rclavicle -3.49116e-015 -1.44119e-014
rhumerus -59.0194 2.66206 -81.7976
rradius 88.1826
rwrist -7.26485
rhand -37.2784 30.1487
rfingers 7.12502
rthumb -10.3432 0.423036
lclavicle -3.49116e-015 -1.44119e-014
lhumerus -34.1883 -24.69 95.7831
lradius 116.976
lwrist 25.0256
lhand -33.1786 4.68141
lfingers 7.12502
lthumb -6.38663 34.5651
rfemur -28.311 5.53329 17.1083
rtibia 24.5812
rfoot 5.00756 -2.3023
rtoes -6.18452
lfemur 15.8885 0.778695 -30.8335
ltibia 61.4926
lfoot 25.9834 3.94598
ltoes -10.2848
83
root 0.335792 18.0517 17.2891 2.15801 -2.88737 5.27552
lowerback 14.6332 -2.24398 -5.55176
upperback 0.826871 -3.91761 -0.3929
thorax -6.98054 -1.73672 3.50305
lowerneck -5.36886 2.81481 -0.16787
upperneck -3.72273 3.72017 -2.30343
head -0.215269 1.85768 -0.619441
rclavicle 3.14328e-014 -2.38542e-015
rhumerus -56.0602 3.08983 -82.0067
rradius 88.6001
rwrist -7.20552
rhand -37.1147 31.2773
rfingers 7.12502
rthumb -10.1853 1.54381
lclavicle 3.14328e-014 -2.38542e-015
lhumerus -33.6261 -24.1261 95.3972
lradius 115.736
lwrist 24.996
lhand -33.6247 5.15865
lfingers 7.12502
lthumb -6.81729 35.0289
rfemur -27.3063 4.43848 18.6965
rtibia 26.5257
rfoot 2.70747 2.23575
rtoes -2.55507
lfemur 14.3314 2.56724 -29.1124
ltibia 66.8791
lfoot 24.5864 3.3432
ltoes -14.2937
84
root 0.346718 17.9355 17.7926 1.64927 -3.25975 4.84687
lowerback 14.8125 -2.06144 -5.03404
upperback 1.19085 -3.58227 -0.322654
thorax -6.74752 -1.60319 3.22099
lowerneck -5.37991 2.77016 -0.173762
upperneck -3.72839 3.66241 -2.22659
head -0.217506 1.82912 -0.595767
rclavicle -5.54112e-015 -3.77691e-015
rhumerus -54.3189 3.63754 -82.4504
rradius 89.3753
rwrist -6.87278
rhand -37.9814 32.07
rfingers 7.12502
rthumb -11.0213 2.37938
lclavicle -5.54112e-015 -3.77691e-015
lhumerus -34.5476 -23.5899 95.3851
lradius 114.8
lwrist 25.2281
lhand -33.8388 6.60041
lfingers 7.12502
lthumb -7.02393 36.4639
rfemur -26.1093 3.97708 19.7355
rtibia 29.0272
rfoot -0.985877 3.46618
rtoes 3.15761
lfemur 12.7903 4.16629 -27.3675
ltibia 72.1265
lfoot 23.5711 3.31021
ltoes -13.9878
85
root 0.344991 17.8057 18.2852 1.19546 -3.4985 4.4962
lowerback 15.4851 -1.90599 -4.65438
upperback 1.2419 -3.3436 -0.252832
thorax -7.10414 -1.48563 3.06848
lowerneck -4.90594 2.76916 -0.4236
upperneck -4.00802 3.66912 -1.95738
head -0.388539 1.8409 -0.483336
rclavicle 3.06625e-014 2.74323e-014
rhumerus -52.8037 4.33598 -82.9452
rradius 90.1972
rwrist -6.50863
rhand -38.8219 31.2589
rfingers 7.12502
rthumb -11.8319 1.61316
lclavicle 3.06625e-014 2.74323e-014
lhumerus -36.128 -22.8165 95.5764
lradius 114.082
lwrist 25.1396
lhand -33.8276 8.29336
lfingers 7.12502
lthumb -7.01311 38.1572
rfemur -25.1608 4.40456 20.5435
rtibia 31.9679
rfoot -4.31707 2.0533
rtoes 9.73292
lfemur 10.8365 5.42659 -25.725
ltibia 77.3598
lfoot 22.3571 3.30038
ltoes -13.0532
86
root 0.337716 17.6979 18.777 0.833999 -3.58157 4.0968
lowerback 16.001 -1.7657 -4.28037
upperback 1.50962 -3.10379 -0.165668
thorax -7.13575 -1.38185 2.91861
lowerneck -5.07699 2.80323 -0.320166
upperneck -4.22549 3.70559 -2.0655
head -0.422785 1.85876 -0.532197
rclavicle 6.53505e-015 1.64991e-014
rhumerus -50.6661 4.83209 -83.4434
rradius 91.0281
rwrist -6.23265
rhand -38.3918 31.3211
rfingers 7.12502
rthumb -11.4171 1.65192
lclavicle 6.53505e-015 1.64991e-014
lhumerus -37.1121 -22.1218 95.5621
lradius 113.233
lwrist 24.6314
lhand -34.1426 8.89712
lfingers 7.12502
lthumb -7.31721 38.7506
rfemur -24.5331 5.57874 21.3365
rtibia 35.1507
rfoot -6.9778 -0.0845514
rtoes 8.37431
lfemur 8.47002 6.42538 -23.9991
ltibia 82.4595
lfoot 21.0147 3.07882
ltoes -13.0617
87
root 0.329216 17.6101 19.2623 0.574346 -3.69504 3.81514
lowerback 16.5533 -1.65741 -4.06862
upperback 1.72665 -2.93833 -0.112788
thorax -7.227 -1.307 2.83977
lowerneck -5.50131 2.87091 0.136891
upperneck -4.17462 3.76915 -2.48859
head -0.321127 1.88146 -0.727962
rclavicle 2.4699e-014 5.96354e-016
rhumerus -48.2049 5.48844 -84.0543
rradius 91.7351
rwrist -5.89873
rhand -38.026 31.8056
rfingers 7.12502
rthumb -11.0643 2.11726
lclavicle 2.4699e-014 5.96354e-016
lhumerus -37.9498 -21.1898 95.342
lradius 112.324
lwrist 24.4467
lhand -34.314 9.12835
lfingers 7.12502
lthumb -7.48262 38.976
rfemur -24.2654 6.8905 21.9441
rtibia 38.1284
rfoot -8.83332 -2.40249
rtoes 10.4922
lfemur 6.21127 7.38699 -22.4673
ltibia 87.1494
lfoot 19.9752 2.78926
ltoes -13.3063
88
root 0.32348 17.5095 19.7265 0.566131 -3.69328 3.24215
lowerback 16.9779 -1.61656 -3.5443
upperback 1.812 -2.78857 0.0754613
thorax -7.395 -1.24334 2.72857
lowerneck -5.36834 2.84989 0.430258
upperneck -4.63608 3.7066 -2.95616
head -0.469539 1.85095 -0.928827
rclavicle 1.54307e-014 -2.127e-014
rhumerus -45.686 6.18889 -84.4736
rradius 92.344
rwrist -5.29449
rhand -37.9026 31.9357
rfingers 7.12502
rthumb -10.9453 2.24098
lclavicle 1.54307e-014 -2.127e-014
lhumerus -39.2329 -19.8402 95.2615
lradius 111.719
lwrist 24.2598
lhand -33.932 9.36999
lfingers 7.12502
lthumb -7.11394 39.2304
rfemur -24.0058 7.77131 22.8745
rtibia 40.5447
rfoot -10.3561 -4.26635
rtoes 11.4077
lfemur 3.73466 8.19473 -20.6938
ltibia 91.6314
lfoot 19.1398 1.97172
ltoes -13.5936
89
root 0.332233 17.4055 20.162 0.77111 -5.56456 1.80409
lowerback 17.392 -0.973053 -2.43432
upperback 1.90024 -1.71147 0.486979
thorax -7.62002 -0.746674 2.30874
lowerneck -4.97524 2.80012 0.534452
upperneck -5.69746 3.59807 -3.34138
head -0.853896 1.80878 -1.08775
rclavicle 3.77691e-015 1.15295e-014
rhumerus -42.9993 7.02663 -84.6751
rradius 92.9841
rwrist -4.90565
rhand -37.3047 31.8144
rfingers 7.12502
rthumb -10.3686 2.09002
lclavicle 3.77691e-015 1.15295e-014
lhumerus -40.5833 -18.446 95.2629
lradius 111.227
lwrist 23.9826
lhand -33.4529 9.40254
lfingers 7.12502
lthumb -6.65142 39.2781
rfemur -23.425 9.37114 24.6523
rtibia 42.2213
rfoot -12.0958 -4.389
rtoes 11.2316
lfemur 1.05835 10.9263 -17.8863
ltibia 95.909
lfoot 18.2469 0.400922
ltoes -13.687
90
root 0.331631 17.3404 20.6276 0.948858 -4.98832 -0.623141
lowerback 17.5825 -1.34935 0.0119591
upperback 2.11958 -1.68071 1.22444
thorax -7.53718 -0.797052 1.70494
lowerneck -4.61007 2.86753 0.491304
upperneck -6.65077 3.65548 -3.56532
head -1.20795 1.85234 -1.17154
rclavicle 4.96962e-015 -2.48481e-014
rhumerus -40.2307 8.1167 -84.8776
rradius 93.5227
rwrist -4.66524
rhand -37.4381 32.0111
rfingers 7.12502
rthumb -10.4973 2.29319
lclavicle 4.96962e-015 -2.48481e-014
lhumerus -41.9283 -17.07 95.3659
lradius 110.708
lwrist 24.5224
lhand -33.2641 9.62414
lfingers 7.12502
lthumb -6.4692 39.5053
rfemur -21.8263 9.45455 27.512
rtibia 43.015
rfoot -14.0087 -5.43346
rtoes 10.0285
lfemur -2.0717 11.1614 -13.8478
ltibia 99.9966
lfoot 17.3449 -1.64511
ltoes -13.7291
91
root 0.320617 17.29 21.0805 1.24807 -3.92674 -1.88133
lowerback 17.4716 -1.7545 1.2194
upperback 2.26199 -1.95416 1.63344
thorax -7.34138 -0.959399 1.51558
lowerneck -4.42374 2.98081 0.57555
upperneck -7.23183 3.78222 -3.70798
head -1.41632 1.92279 -1.24369
rclavicle -1.88348e-014 2.16675e-014
rhumerus -37.4537 9.09203 -85.1737
rradius 93.9698
rwrist -4.23903
rhand -38.1015 32.5238
rfingers 7.12502
rthumb -11.1372 2.83939
lclavicle -1.88348e-014 2.16675e-014
lhumerus -43.2109 -15.8711 95.3517
lradius 110.283
lwrist 25.6501
lhand -33.2067 10.9747
lfingers 7.12502
lthumb -6.41372 40.8576
rfemur -20.4048 8.90929 29.0525
rtibia 43.2319
rfoot -15.4542 -6.19976
rtoes 7.96156
lfemur -5.80865 10.8511 -11.5732
ltibia 103.539
lfoot 16.6455 -3.06956
ltoes -11.1783
92
root 0.320415 17.2544 21.521 1.24117 -3.5291 -1.70679
lowerback 17.8447 -1.7488 1.06712
upperback 2.38938 -1.97267 1.57726
thorax -7.40405 -0.963932 1.55614
lowerneck -4.56522 2.92779 0.629176
upperneck -7.53498 3.69676 -3.81238
head -1.48818 1.88186 -1.28859
rclavicle 9.88954e-015 9.74045e-015
rhumerus -34.7859 9.85413 -85.351
rradius 94.3285
rwrist -3.41339
rhand -38.4987 32.7494
rfingers 7.12502
rthumb -11.5202 3.08603
lclavicle 9.88954e-015 9.74045e-015
lhumerus -44.2682 -14.9436 95.2073
lradius 109.786
lwrist 26.8269
lhand -33.4752 11.6272
lfingers 7.12502
lthumb -6.673 41.502
rfemur -18.736 8.18647 28.9811
rtibia 43.1637
rfoot -16.5662 -6.28032
rtoes 5.24112
lfemur -8.99218 10.9199 -11.6595
ltibia 106.202
lfoot 15.8685 -3.74039
ltoes -10.4336
93
root 0.326034 17.2341 21.9823 1.48287 -2.57147 -1.605
lowerback 17.8575 -1.91027 1.21655
upperback 2.30898 -2.15388 1.56454
thorax -7.50115 -1.05448 1.50378
lowerneck -4.51533 2.77615 0.790728
upperneck -7.67881 3.47155 -4.08344
head -1.5413 1.77095 -1.4064
rclavicle -1.82385e-014 2.18663e-015
rhumerus -32.5034 10.4888 -85.3172
rradius 94.6991
rwrist -2.77451
rhand -38.1061 33.0462
rfingers 7.12502
rthumb -11.1416 3.36197
lclavicle -1.82385e-014 2.18663e-015
lhumerus -45.5427 -14.1903 95.2021
lradius 109.396
lwrist 28.4032
lhand -33.751 11.0544
lfingers 7.12502
lthumb -6.9392 40.9207
rfemur -17.0818 7.10429 28.9911
rtibia 43.0363
rfoot -17.543 -6.80069
rtoes 3.33573
lfemur -12.6887 10.1287 -12.1903
ltibia 108.326
lfoot 14.864 -3.86362
ltoes -11.9227
94
root 0.333142 17.2199 22.4287 1.99104 -1.54445 -2.00418
lowerback 17.7257 -2.064 1.82186
upperback 2.06589 -2.22185 1.74334
thorax -7.70745 -1.10118 1.37152
lowerneck -4.15573 2.53805 0.984549
upperneck -7.8043 3.1264 -4.42388
head -1.64493 1.60373 -1.5585
rclavicle 4.90998e-014 -2.74323e-014
rhumerus -30.5731 10.9883 -85.2002
rradius 95.2182
rwrist -2.24976
rhand -37.8065 33.4873
rfingers 7.12502
rthumb -10.8526 3.78771
lclavicle 4.90998e-014 -2.74323e-014
lhumerus -46.8913 -13.6281 95.4163
lradius 109.167
lwrist 30.5263
lhand -34.5397 11.4557
lfingers 7.12502
lthumb -7.70053 41.2955
rfemur -15.6719 6.147 29.5762
rtibia 42.7981
rfoot -18.2043 -7.2039
rtoes 1.93761
lfemur -17.1712 9.32678 -12.1378
ltibia 110.241
lfoot 14.1166 -4.1234
ltoes -12.0236
95
root 0.330527 17.2145 22.8563 2.25661 -1.42481 -2.35823
lowerback 18.1351 -1.7765 1.92301
upperback 1.84081 -1.7869 1.94331
thorax -8.17628 -0.890252 1.44592
lowerneck -3.92494 2.24624 1.00646
upperneck -7.7505 2.73328 -4.50351
head -1.67768 1.41039 -1.5916
rclavicle 1.51076e-014 5.36719e-015
rhumerus -29.0265 11.2679 -85.0331
rradius 96.0713
rwrist -1.5757
rhand -37.8316 33.7096
rfingers 7.12502
rthumb -10.8768 4.01124
lclavicle 1.51076e-014 5.36719e-015
lhumerus -48.0743 -13.3063 95.7054
lradius 109.029
lwrist 32.4347
lhand -34.7625 14.1396
lfingers 7.12502
lthumb -7.91551 43.9714
rfemur -14.0636 5.93537 30.1238
rtibia 42.3218
rfoot -18.427 -7.29803
rtoes -0.493009
lfemur -21.0671 9.68483 -11.8304
ltibia 111.568
lfoot 13.4019 -5.0151
ltoes -13.0839
